<svg id="visual" viewBox="0 0 960 540" width="960" height="540" xmlns="http://www.w3.org/2000/svg" xmlns:xlink="http://www.w3.org/1999/xlink" version="1.1"><g stroke-width="1" stroke-linejoin="bevel"><path d="M448.7 261L568.3 285L451.7 213Z" fill="#205a7a" stroke="#205a7a"></path><path d="M568.3 285L521.3 150L451.7 213Z" fill="#112e42" stroke="#112e42"></path><path d="M603 380L606 304L568.3 285Z" fill="#19435d" stroke="#19435d"></path><path d="M666 209L544.3 117L521.3 150Z" fill="#15384f" stroke="#15384f"></path><path d="M666 209L521.3 150L568.3 285Z" fill="#112e42" stroke="#112e42"></path><path d="M521.3 150L441.7 96L451.7 213Z" fill="#081a28" stroke="#081a28"></path><path d="M606 304L666 209L568.3 285Z" fill="#15384f" stroke="#15384f"></path><path d="M448.7 261L546.3 397L568.3 285Z" fill="#15384f" stroke="#15384f"></path><path d="M544.3 117L441.7 96L521.3 150Z" fill="#112e42" stroke="#112e42"></path><path d="M298 366L419.7 386L448.7 261Z" fill="#1d4e6b" stroke="#1d4e6b"></path><path d="M546.3 397L603 380L568.3 285Z" fill="#277297" stroke="#277297"></path><path d="M606 304L737.7 289L666 209Z" fill="#19435d" stroke="#19435d"></path><path d="M282 267L448.7 261L451.7 213Z" fill="#297ea6" stroke="#297ea6"></path><path d="M448.7 261L419.7 386L546.3 397Z" fill="#112e42" stroke="#112e42"></path><path d="M419.7 386L421.7 419L546.3 397Z" fill="#19435d" stroke="#19435d"></path><path d="M421.7 419L546.3 442L546.3 397Z" fill="#0c2435" stroke="#0c2435"></path><path d="M546.3 397L546.3 442L603 380Z" fill="#205a7a" stroke="#205a7a"></path><path d="M666 209L648 77L544.3 117Z" fill="#205a7a" stroke="#205a7a"></path><path d="M544.3 117L525.3 0L441.7 96Z" fill="#297ea6" stroke="#297ea6"></path><path d="M441.7 96L338 121L451.7 213Z" fill="#1d4e6b" stroke="#1d4e6b"></path><path d="M419.7 386L320 424L421.7 419Z" fill="#205a7a" stroke="#205a7a"></path><path d="M603 380L737.7 289L606 304Z" fill="#081a28" stroke="#081a28"></path><path d="M666 209L772.7 109L648 77Z" fill="#15384f" stroke="#15384f"></path><path d="M772.7 350L737.7 289L603 380Z" fill="#1d4e6b" stroke="#1d4e6b"></path><path d="M338 121L306 147L451.7 213Z" fill="#0c2435" stroke="#0c2435"></path><path d="M306 147L282 267L451.7 213Z" fill="#297ea6" stroke="#297ea6"></path><path d="M648 77L525.3 0L544.3 117Z" fill="#246688" stroke="#246688"></path><path d="M441.7 96L426.7 0L338 121Z" fill="#205a7a" stroke="#205a7a"></path><path d="M546.3 540L602 470L546.3 442Z" fill="#15384f" stroke="#15384f"></path><path d="M546.3 442L602 470L603 380Z" fill="#112e42" stroke="#112e42"></path><path d="M737.7 289L757.7 196L666 209Z" fill="#277297" stroke="#277297"></path><path d="M282 267L298 366L448.7 261Z" fill="#297ea6" stroke="#297ea6"></path><path d="M525.3 0L426.7 0L441.7 96Z" fill="#00101c" stroke="#00101c"></path><path d="M191.3 77L201.3 197L306 147Z" fill="#277297" stroke="#277297"></path><path d="M298 366L320 424L419.7 386Z" fill="#081a28" stroke="#081a28"></path><path d="M415.7 540L546.3 540L546.3 442Z" fill="#00101c" stroke="#00101c"></path><path d="M743.7 0L641 0L648 77Z" fill="#081a28" stroke="#081a28"></path><path d="M648 77L641 0L525.3 0Z" fill="#246688" stroke="#246688"></path><path d="M783.7 437L772.7 350L603 380Z" fill="#1d4e6b" stroke="#1d4e6b"></path><path d="M737.7 289L813.3 265L757.7 196Z" fill="#15384f" stroke="#15384f"></path><path d="M201.3 197L225.3 240L306 147Z" fill="#0c2435" stroke="#0c2435"></path><path d="M306 147L225.3 240L282 267Z" fill="#00101c" stroke="#00101c"></path><path d="M282 267L246.3 360L298 366Z" fill="#19435d" stroke="#19435d"></path><path d="M298 366L232.3 431L320 424Z" fill="#00101c" stroke="#00101c"></path><path d="M757.7 196L772.7 109L666 209Z" fill="#081a28" stroke="#081a28"></path><path d="M860.3 183L772.7 109L757.7 196Z" fill="#112e42" stroke="#112e42"></path><path d="M225.3 240L246.3 360L282 267Z" fill="#297ea6" stroke="#297ea6"></path><path d="M772.7 350L813.3 265L737.7 289Z" fill="#246688" stroke="#246688"></path><path d="M415.7 540L546.3 442L421.7 419Z" fill="#1d4e6b" stroke="#1d4e6b"></path><path d="M602 470L783.7 437L603 380Z" fill="#1d4e6b" stroke="#1d4e6b"></path><path d="M327 540L415.7 540L320 424Z" fill="#0c2435" stroke="#0c2435"></path><path d="M320 424L415.7 540L421.7 419Z" fill="#246688" stroke="#246688"></path><path d="M289 0L306 147L338 121Z" fill="#19435d" stroke="#19435d"></path><path d="M225.3 240L131.7 341L246.3 360Z" fill="#112e42" stroke="#112e42"></path><path d="M546.3 540L625 540L602 470Z" fill="#00101c" stroke="#00101c"></path><path d="M426.7 0L289 0L338 121Z" fill="#205a7a" stroke="#205a7a"></path><path d="M783.7 437L833.3 334L772.7 350Z" fill="#15384f" stroke="#15384f"></path><path d="M772.7 350L833.3 334L813.3 265Z" fill="#0c2435" stroke="#0c2435"></path><path d="M813.3 265L860.3 183L757.7 196Z" fill="#112e42" stroke="#112e42"></path><path d="M870.3 57L743.7 0L772.7 109Z" fill="#081a28" stroke="#081a28"></path><path d="M772.7 109L743.7 0L648 77Z" fill="#1d4e6b" stroke="#1d4e6b"></path><path d="M760.7 540L783.7 437L602 470Z" fill="#1d4e6b" stroke="#1d4e6b"></path><path d="M131.7 341L232.3 431L246.3 360Z" fill="#19435d" stroke="#19435d"></path><path d="M246.3 360L232.3 431L298 366Z" fill="#205a7a" stroke="#205a7a"></path><path d="M960 236L860.3 183L813.3 265Z" fill="#297ea6" stroke="#297ea6"></path><path d="M232.3 431L327 540L320 424Z" fill="#205a7a" stroke="#205a7a"></path><path d="M289 0L191.3 77L306 147Z" fill="#19435d" stroke="#19435d"></path><path d="M289 0L232.3 0L191.3 77Z" fill="#277297" stroke="#277297"></path><path d="M783.7 437L891.3 449L833.3 334Z" fill="#00101c" stroke="#00101c"></path><path d="M625 540L760.7 540L602 470Z" fill="#00101c" stroke="#00101c"></path><path d="M201.3 197L124.7 248L225.3 240Z" fill="#277297" stroke="#277297"></path><path d="M94.7 201L124.7 248L201.3 197Z" fill="#112e42" stroke="#112e42"></path><path d="M124.7 248L131.7 341L225.3 240Z" fill="#246688" stroke="#246688"></path><path d="M232.3 431L190.3 540L327 540Z" fill="#277297" stroke="#277297"></path><path d="M860.3 183L870.3 57L772.7 109Z" fill="#1d4e6b" stroke="#1d4e6b"></path><path d="M75.7 71L94.7 201L191.3 77Z" fill="#205a7a" stroke="#205a7a"></path><path d="M191.3 77L94.7 201L201.3 197Z" fill="#246688" stroke="#246688"></path><path d="M124.7 248L0 292L131.7 341Z" fill="#0c2435" stroke="#0c2435"></path><path d="M870.3 57L867.3 0L743.7 0Z" fill="#205a7a" stroke="#205a7a"></path><path d="M845.3 540L891.3 449L783.7 437Z" fill="#1d4e6b" stroke="#1d4e6b"></path><path d="M833.3 334L960 236L813.3 265Z" fill="#205a7a" stroke="#205a7a"></path><path d="M860.3 183L960 143L870.3 57Z" fill="#081a28" stroke="#081a28"></path><path d="M870.3 57L960 0L867.3 0Z" fill="#1d4e6b" stroke="#1d4e6b"></path><path d="M130.7 540L190.3 540L232.3 431Z" fill="#081a28" stroke="#081a28"></path><path d="M960 342L960 236L833.3 334Z" fill="#0c2435" stroke="#0c2435"></path><path d="M760.7 540L845.3 540L783.7 437Z" fill="#081a28" stroke="#081a28"></path><path d="M960 236L960 143L860.3 183Z" fill="#00101c" stroke="#00101c"></path><path d="M891.3 449L960 342L833.3 334Z" fill="#0c2435" stroke="#0c2435"></path><path d="M960 421L960 342L891.3 449Z" fill="#1d4e6b" stroke="#1d4e6b"></path><path d="M232.3 0L115.7 0L191.3 77Z" fill="#205a7a" stroke="#205a7a"></path><path d="M115.7 0L75.7 71L191.3 77Z" fill="#15384f" stroke="#15384f"></path><path d="M960 540L960 421L891.3 449Z" fill="#112e42" stroke="#112e42"></path><path d="M960 143L960 60L870.3 57Z" fill="#19435d" stroke="#19435d"></path><path d="M74.7 482L232.3 431L131.7 341Z" fill="#19435d" stroke="#19435d"></path><path d="M74.7 482L130.7 540L232.3 431Z" fill="#0c2435" stroke="#0c2435"></path><path d="M74.7 482L131.7 341L0 421Z" fill="#15384f" stroke="#15384f"></path><path d="M0 292L124.7 248L94.7 201Z" fill="#0c2435" stroke="#0c2435"></path><path d="M960 60L960 0L870.3 57Z" fill="#205a7a" stroke="#205a7a"></path><path d="M0 178L0 292L94.7 201Z" fill="#297ea6" stroke="#297ea6"></path><path d="M0 114L94.7 201L75.7 71Z" fill="#297ea6" stroke="#297ea6"></path><path d="M0 114L0 178L94.7 201Z" fill="#297ea6" stroke="#297ea6"></path><path d="M0 0L0 114L75.7 71Z" fill="#277297" stroke="#277297"></path><path d="M0 292L0 379L131.7 341Z" fill="#0c2435" stroke="#0c2435"></path><path d="M845.3 540L960 540L891.3 449Z" fill="#19435d" stroke="#19435d"></path><path d="M0 379L0 421L131.7 341Z" fill="#00101c" stroke="#00101c"></path><path d="M74.7 482L0 540L130.7 540Z" fill="#081a28" stroke="#081a28"></path><path d="M115.7 0L0 0L75.7 71Z" fill="#1d4e6b" stroke="#1d4e6b"></path><path d="M0 421L0 540L74.7 482Z" fill="#0c2435" stroke="#0c2435"></path></g></svg>